<?xml version="1.0" encoding="UTF-8" standalone="no"?>
<svg width="626px" height="58px" viewBox="0 0 626 58" version="1.1" xmlns="http://www.w3.org/2000/svg" xmlns:xlink="http://www.w3.org/1999/xlink" xmlns:sketch="http://www.bohemiancoding.com/sketch/ns">
    <title>Untitled</title>
    <description>Created with Sketch (http://www.bohemiancoding.com/sketch)</description>
    <defs></defs>
    <g id="Page-1" stroke="none" stroke-width="1" fill="none" fill-rule="evenodd" sketch:type="MSPage">
        <path d="M9.944,10.272 L20.24,45.768 L30.248,13.368 L36.008,13.368 L46.592,45.912 L57.536,10.272 L67.112,10.272 L51.056,57 L42.128,57 L33.344,30.648 L24.632,57 L15.704,57 L0.44,10.272 L9.944,10.272 Z M78.744,27.696 C81.144012,23.2799779 84.647977,21.072 89.256,21.072 C93.864023,21.072 97.2599891,22.4879858 99.444,25.32 C101.628011,28.1520142 102.72,31.8959767 102.72,36.552 L102.72,57 L94.224,57 L94.224,36.552 C94.224,33.959987 93.6000062,32.0040066 92.352,30.684 C91.1039938,29.3639934 89.3520113,28.704 87.096,28.704 C84.8399887,28.704 82.908008,29.7119899 81.3,31.728 C79.691992,33.7440101 78.8400005,36.7679798 78.744,40.8 L78.744,57 L70.248,57 L70.248,7.608 L78.744,7.608 L78.744,27.696 Z M121.624,36.552 C124.408014,36.552 127.623982,37.0079954 131.272,37.92 L131.272,34.464 C131.272,32.0159878 130.780005,30.2040059 129.796,29.028 C128.811995,27.8519941 127.204011,27.264 124.972,27.264 C122.739989,27.264 121.024006,27.7079956 119.824,28.596 C118.623994,29.4840044 118.024,30.7439918 118.024,32.376 L108.736,32.376 C108.736,28.3919801 110.139986,25.5120089 112.948,23.736 C115.756014,21.9599911 119.679975,21.072 124.72,21.072 C131.920036,21.072 136.575989,23.5919748 138.688,28.632 C139.408004,30.3600086 139.768,32.3999882 139.768,34.752 L139.768,57 L132.352,57 L131.704,52.32 C129.447989,56.112019 125.992023,58.008 121.336,58.008 C116.823977,58.008 113.320012,56.904011 110.824,54.696 C108.519988,52.5839894 107.368,49.9080162 107.368,46.668 C107.368,43.4279838 108.639987,40.9320088 111.184,39.18 C113.728013,37.4279912 117.207978,36.552 121.624,36.552 Z M131.272,43.32 C128.439986,42.5519962 125.800012,42.168 123.352,42.168 C118.743977,42.168 116.44,43.7039846 116.44,46.776 C116.44,48.0720065 116.967995,49.1879953 118.024,50.124 C119.080005,51.0600047 120.771988,51.528 123.1,51.528 C125.428012,51.528 127.347992,50.7480078 128.86,49.188 C130.372008,47.6279922 131.176,45.6720118 131.272,43.32 Z M166.88,56.136 C163.711984,57.3840062 161.216009,58.008 159.392,58.008 C157.567991,58.008 155.972007,57.7920022 154.604,57.36 C153.235993,56.9279978 152.024005,56.2800043 150.968,55.416 C148.759989,53.4479902 147.656,50.7360173 147.656,47.28 L147.656,27.696 L142.76,27.696 L142.76,22.008 L147.656,22.008 L147.656,12.792 L156.152,12.792 L156.152,22.008 L165.656,22.008 L165.656,27.696 L156.152,27.696 L156.152,46.992 C156.152,49.8720144 157.519986,51.312 160.256,51.312 C161.648007,51.312 163.447989,50.9280038 165.656,50.16 L166.88,56.136 Z M184.528,21.936 L193.024,21.936 L193.024,57 L184.528,57 L184.528,21.936 Z M183.52,10.704 C183.52,9.16799232 183.975995,7.95600444 184.888,7.068 C185.800005,6.17999556 187.095992,5.736 188.776,5.736 C190.408008,5.736 191.691995,6.17999556 192.628,7.068 C193.564005,7.95600444 194.032,9.16799232 194.032,10.704 C194.032,12.2400077 193.564005,13.4519956 192.628,14.34 C191.691995,15.2280044 190.408008,15.672 188.776,15.672 C187.095992,15.672 185.800005,15.2280044 184.888,14.34 C183.975995,13.4519956 183.52,12.2400077 183.52,10.704 Z M207.176,46.344 C207.272,49.6560166 209.695976,51.312 214.448,51.312 C216.272009,51.312 217.771994,50.916004 218.948,50.124 C220.124006,49.331996 220.712,48.4080053 220.712,47.352 C220.712,46.2959947 220.352004,45.4800029 219.632,44.904 C218.911996,44.3279971 217.784008,43.8000024 216.248,43.32 L208.616,40.584 C202.951972,38.6159902 200.12,35.4000223 200.12,30.936 C200.12,27.9599851 201.451987,25.572009 204.116,23.772 C206.780013,21.971991 210.355978,21.072 214.844,21.072 C219.332022,21.072 222.787988,22.0559902 225.212,24.024 C227.636012,25.9920098 228.896,28.4639851 228.992,31.44 L221,31.44 C220.904,30.2879942 220.352005,29.3760034 219.344,28.704 C218.335995,28.0319966 216.896009,27.696 215.024,27.696 C213.151991,27.696 211.700005,28.0679963 210.668,28.812 C209.635995,29.5560037 209.12,30.4079952 209.12,31.368 C209.12,33.0480084 210.535986,34.2959959 213.368,35.112 L221.648,38.208 C224.384014,39.1200046 226.483993,40.2839929 227.948,41.7 C229.412007,43.1160071 230.144,44.9519887 230.144,47.208 C230.144,50.0880144 228.776014,52.5839894 226.04,54.696 C223.207986,56.904011 219.464023,58.008 214.808,58.008 C210.151977,58.008 206.408014,56.9880102 203.576,54.948 C200.743986,52.9079898 199.304,50.0400185 199.256,46.344 L207.176,46.344 Z M260.104,36.552 C262.888014,36.552 266.103982,37.0079954 269.752,37.92 L269.752,34.464 C269.752,32.0159878 269.260005,30.2040059 268.276,29.028 C267.291995,27.8519941 265.684011,27.264 263.452,27.264 C261.219989,27.264 259.504006,27.7079956 258.304,28.596 C257.103994,29.4840044 256.504,30.7439918 256.504,32.376 L247.216,32.376 C247.216,28.3919801 248.619986,25.5120089 251.428,23.736 C254.236014,21.9599911 258.159975,21.072 263.2,21.072 C270.400036,21.072 275.055989,23.5919748 277.168,28.632 C277.888004,30.3600086 278.248,32.3999882 278.248,34.752 L278.248,57 L270.832,57 L270.184,52.32 C267.927989,56.112019 264.472023,58.008 259.816,58.008 C255.303977,58.008 251.800012,56.904011 249.304,54.696 C246.999988,52.5839894 245.848,49.9080162 245.848,46.668 C245.848,43.4279838 247.119987,40.9320088 249.664,39.18 C252.208013,37.4279912 255.687978,36.552 260.104,36.552 Z M269.752,43.32 C266.919986,42.5519962 264.280012,42.168 261.832,42.168 C257.223977,42.168 254.92,43.7039846 254.92,46.776 C254.92,48.0720065 255.447995,49.1879953 256.504,50.124 C257.560005,51.0600047 259.251988,51.528 261.58,51.528 C263.908012,51.528 265.827992,50.7480078 267.34,49.188 C268.852008,47.6279922 269.656,45.6720118 269.752,43.32 Z M327.504,49.584 C325.48799,55.2000281 321.624029,58.008 315.912,58.008 C310.055971,58.008 305.232019,55.8000221 301.44,51.384 C297.50398,46.8239772 295.536,40.9920355 295.536,33.888 C295.536,26.3999626 297.647979,20.4000226 301.872,15.888 C305.95202,11.5199782 311.207968,9.336 317.64,9.336 C322.008022,9.336 325.667985,10.2839905 328.62,12.18 C331.572015,14.0760095 333.887992,17.0639796 335.568,21.144 L326.856,23.16 C324.311987,19.0799796 321.096019,17.04 317.208,17.04 C313.655982,17.04 310.704012,18.5519849 308.352,21.576 C305.903988,24.6480154 304.68,28.7519743 304.68,33.888 C304.68,38.7360242 305.783989,42.6719849 307.992,45.696 C310.152011,48.6720149 313.031982,50.16 316.632,50.16 C319.704015,50.16 322.22399,49.1760098 324.192,47.208 C326.20801,45.1919899 327.216,42.4320175 327.216,38.928 L327.216,38.64 L316.704,38.424 L316.704,32.952 L335.352,32.952 L335.352,57 L328.44,57 L327.504,49.584 Z M356.344,21.072 C358.696012,21.072 360.90399,21.4439963 362.968,22.188 C365.03201,22.9320037 366.807993,24.0719923 368.296,25.608 C371.608017,28.9680168 373.264,33.6239702 373.264,39.576 C373.264,45.4320293 371.608017,50.0399832 368.296,53.4 C365.319985,56.4720154 361.336025,58.008 356.344,58.008 C351.351975,58.008 347.320015,56.4720154 344.248,53.4 C340.935983,50.0879834 339.28,45.4800295 339.28,39.576 C339.28,33.57597 340.935983,28.9200166 344.248,25.608 C347.272015,22.5839849 351.303975,21.072 356.344,21.072 Z M362.608,31.188 C361.167993,29.3399908 359.164013,28.416 356.596,28.416 C354.027987,28.416 351.928008,29.3399908 350.296,31.188 C348.663992,33.0360092 347.848,35.8079815 347.848,39.504 C347.848,43.2000185 348.579993,45.9719908 350.044,47.82 C351.508007,49.6680092 353.511987,50.592 356.056,50.592 C358.600013,50.592 360.687992,49.6680092 362.32,47.82 C363.952008,45.9719908 364.768,43.2000185 364.768,39.504 C364.768,35.8079815 364.048007,33.0360092 362.608,31.188 Z M392.096,21.072 C394.448012,21.072 396.65599,21.4439963 398.72,22.188 C400.78401,22.9320037 402.559993,24.0719923 404.048,25.608 C407.360017,28.9680168 409.016,33.6239702 409.016,39.576 C409.016,45.4320293 407.360017,50.0399832 404.048,53.4 C401.071985,56.4720154 397.088025,58.008 392.096,58.008 C387.103975,58.008 383.072015,56.4720154 380,53.4 C376.687983,50.0879834 375.032,45.4800295 375.032,39.576 C375.032,33.57597 376.687983,28.9200166 380,25.608 C383.024015,22.5839849 387.055975,21.072 392.096,21.072 Z M398.36,31.188 C396.919993,29.3399908 394.916013,28.416 392.348,28.416 C389.779987,28.416 387.680008,29.3399908 386.048,31.188 C384.415992,33.0360092 383.6,35.8079815 383.6,39.504 C383.6,43.2000185 384.331993,45.9719908 385.796,47.82 C387.260007,49.6680092 389.263987,50.592 391.808,50.592 C394.352013,50.592 396.439992,49.6680092 398.072,47.82 C399.704008,45.9719908 400.52,43.2000185 400.52,39.504 C400.52,35.8079815 399.800007,33.0360092 398.36,31.188 Z M436.92,51.6 C434.759989,55.8720214 431.448022,58.008 426.984,58.008 C422.519978,58.008 418.776015,56.304017 415.752,52.896 C412.631984,49.3439822 411.072,44.8320274 411.072,39.36 C411.072,33.8879726 412.559985,29.448017 415.536,26.04 C418.464015,22.7279834 422.111978,21.072 426.48,21.072 C430.848022,21.072 434.135989,22.8239825 436.344,26.328 L436.344,7.608 L444.912,7.608 L444.912,57 L437.928,57 L436.92,51.6 Z M422.052,31.62 C420.443992,33.5640097 419.64,36.1679837 419.64,39.432 C419.64,42.6960163 420.455992,45.32399 422.088,47.316 C423.720008,49.30801 425.783988,50.304 428.28,50.304 C430.34401,50.304 432.191992,49.4880082 433.824,47.856 C435.504008,46.1759916 436.344,44.0640127 436.344,41.52 L436.344,36.984 C436.248,34.4879875 435.408008,32.4480079 433.824,30.864 C432.383993,29.4239928 430.464012,28.704 428.064,28.704 C425.663988,28.704 423.660008,29.6759903 422.052,31.62 Z M475.016,49.584 L494.24,49.584 L494.24,57 L466.52,57 L466.52,10.272 L475.016,10.272 L475.016,49.584 Z M497.808,21.936 L506.304,21.936 L506.304,57 L497.808,57 L497.808,21.936 Z M496.8,10.704 C496.8,9.16799232 497.255995,7.95600444 498.168,7.068 C499.080005,6.17999556 500.375992,5.736 502.056,5.736 C503.688008,5.736 504.971995,6.17999556 505.908,7.068 C506.844005,7.95600444 507.312,9.16799232 507.312,10.704 C507.312,12.2400077 506.844005,13.4519956 505.908,14.34 C504.971995,15.2280044 503.688008,15.672 502.056,15.672 C500.375992,15.672 499.080005,15.2280044 498.168,14.34 C497.255995,13.4519956 496.8,12.2400077 496.8,10.704 Z M511.888,22.008 L517.072,22.008 L517.072,17.904 C517.072,14.303982 518.127989,11.5440096 520.24,9.624 C522.16001,7.89599136 524.655985,7.032 527.728,7.032 C529.69601,7.032 532.119986,7.31999712 535,7.896 L533.344,14.448 C531.999993,13.9679976 530.788005,13.728 529.708,13.728 C528.627995,13.728 527.680004,14.027997 526.864,14.628 C526.047996,15.228003 525.64,16.3439918 525.64,17.976 L525.64,22.008 L532.048,22.008 L532.048,27.696 L525.64,27.696 L525.64,57 L517.072,57 L517.072,27.696 L511.888,27.696 L511.888,22.008 Z M564.164,31.512 C564.764003,33.5280101 565.064,35.3759916 565.064,37.056 C565.064,38.7360084 564.968001,40.2479933 564.776,41.592 L542.168,41.592 C542.264,44.4240142 542.959994,46.7279911 544.256,48.504 C545.552006,50.2800089 547.519987,51.168 550.16,51.168 C553.664018,51.168 555.751997,49.6320154 556.424,46.56 L564.992,46.56 C564.415997,50.0640175 562.808013,52.8239899 560.168,54.84 C557.431986,56.9520106 554.09602,58.008 550.16,58.008 C545.551977,58.008 541.688016,56.3280168 538.568,52.968 C535.351984,49.4639825 533.744,44.9760274 533.744,39.504 C533.744,33.8879719 535.351984,29.376017 538.568,25.968 C541.640015,22.7039837 545.503977,21.072 550.16,21.072 C555.008024,21.072 558.775987,22.775983 561.464,26.184 C562.664006,27.7200077 563.563997,29.4959899 564.164,31.512 Z M550.232,27.84 C547.831988,27.84 545.960007,28.6199922 544.616,30.18 C543.271993,31.7400078 542.480001,33.7439878 542.24,36.192 L557.144,36.192 C557.144,32.399981 555.944012,29.8560065 553.544,28.56 C552.631995,28.0799976 551.528006,27.84 550.232,27.84 Z M598.44,22.368 C598.44,24.9120127 597.816006,27.0359915 596.568,28.74 C595.319994,30.4440085 593.352013,31.9679933 590.664,33.312 C588.407989,34.4640058 586.932003,35.4479959 586.236,36.264 C585.539997,37.0800041 585.096001,37.8359965 584.904,38.532 C584.711999,39.2280035 584.616,40.0319954 584.616,40.944 L584.616,43.032 L576.12,43.032 L576.12,40.152 C576.12,35.8319784 577.415987,32.7600091 580.008,30.936 C580.920005,30.2639966 582.263991,29.4720046 584.04,28.56 C585.816009,27.6479954 587.099996,26.7240047 587.892,25.788 C588.684004,24.8519953 589.08,23.6520073 589.08,22.188 C589.08,20.7239927 588.480006,19.5000049 587.28,18.516 C586.079994,17.5319951 584.304012,17.04 581.952,17.04 C579.599988,17.04 577.752007,17.6039944 576.408,18.732 C575.063993,19.8600056 574.296001,21.3359909 574.104,23.16 L565.248,23.16 C565.488001,18.9839791 567.023986,15.6360126 569.856,13.116 C572.688014,10.5959874 576.659974,9.336 581.772,9.336 C586.884026,9.336 590.939985,10.5839875 593.94,13.08 C596.940015,15.5760125 598.44,18.6719815 598.44,22.368 Z M576.3,48.288 C577.380005,47.2319947 578.795991,46.704 580.548,46.704 C582.300009,46.704 583.751994,47.2319947 584.904,48.288 C586.056006,49.3440053 586.632,50.6879918 586.632,52.32 C586.632,53.9520082 586.056006,55.3079946 584.904,56.388 C583.751994,57.4680054 582.300009,58.008 580.548,58.008 C578.795991,58.008 577.380005,57.4680054 576.3,56.388 C575.219995,55.3079946 574.68,53.9520082 574.68,52.32 C574.68,50.6879918 575.219995,49.3440053 576.3,48.288 Z" id="What-is-a-Good-Life?" fill="#505090" sketch:type="MSShapeGroup"></path>
        <path d="M601.592,11.48 C601.592,7.60798064 602.519991,4.78400888 604.376,3.008 C606.232009,1.23199112 608.983982,0.344 612.632,0.344 C614.55201,0.344 616.191993,0.56799776 617.552,1.016 C618.912007,1.46400224 620.023996,2.07199616 620.888,2.84 C621.752004,3.60800384 622.375998,4.49599496 622.76,5.504 C623.144002,6.51200504 623.336,7.5759944 623.336,8.696 C623.336,10.2320077 622.920004,11.5759942 622.088,12.728 C621.255996,13.8800058 620.072008,14.5839987 618.536,14.84 L618.536,14.984 C619.752006,15.176001 620.815995,15.567997 621.728,16.16 C622.640005,16.752003 623.391997,17.4799957 623.984,18.344 C624.576003,19.2080043 625.015999,20.1599948 625.304,21.2 C625.592001,22.2400052 625.736,23.3039946 625.736,24.392 C625.736,26.3440098 625.472003,28.0319929 624.944,29.456 C624.415997,30.8800071 623.704004,32.0479954 622.808,32.96 C621.911996,33.8720046 620.856006,34.5519978 619.64,35 C618.423994,35.4480022 617.144007,35.672 615.8,35.672 C613.911991,35.672 612.368006,35.2960038 611.168,34.544 C609.967994,33.7919962 609.064003,32.9520046 608.456,32.024 L608.408,32.024 L608.408,43.736 L601.592,43.736 L601.592,11.48 Z M611.672,18.152 L611.672,13.832 L612.92,13.832 C615.352012,13.832 616.568,12.3600147 616.568,9.416 C616.568,8.19999392 616.240003,7.25600336 615.584,6.584 C614.927997,5.91199664 613.944007,5.576 612.632,5.576 C611.063992,5.576 609.912004,6.06399512 609.176,7.04 C608.439996,8.01600488 608.072,9.68798816 608.072,12.056 L608.072,21.848 C608.072,24.856015 608.575995,27.063993 609.584,28.472 C610.592005,29.880007 611.943992,30.584 613.64,30.584 C614.312003,30.584 614.959997,30.480001 615.584,30.272 C616.208003,30.063999 616.767998,29.7200024 617.264,29.24 C617.760002,28.7599976 618.159998,28.1440038 618.464,27.392 C618.768002,26.6399962 618.92,25.7200054 618.92,24.632 C618.92,22.231988 618.528004,20.5520048 617.744,19.592 C616.959996,18.6319952 615.800008,18.152 614.264,18.152 L611.672,18.152 Z" id="β" fill="#9B9B9B" sketch:type="MSShapeGroup"></path>
    </g>
</svg>